<svg width="531" height="160" viewBox="0 0 531 160" fill="none" xmlns="http://www.w3.org/2000/svg">
<path d="M531 0H0V160H531V0Z" fill="#ED1D24"/>
<path d="M449.361 37.2864V12.7966H358.337L343.367 94.6118L328.555 12.797H295.73L299.407 34.628C295.616 29.0354 282.177 12.797 252.601 12.797C252.407 12.7875 219.732 12.797 219.732 12.797L219.606 132.049L195.681 12.797L152.692 12.7783L127.941 136.34L127.954 12.7962H86.8099L71.9777 82.2008L57.5303 12.797H16.3735V147.129H48.7837V82.3811L63.5263 147.128H80.7567L95.2924 82.3811V147.128H157.773L161.565 126.457H186.72L190.499 147.128L251.841 147.155H251.891V147.128H251.929H251.967V103.523L259.487 102.703L275.055 147.155H275.094H306.747H306.784L306.771 147.128H306.828H306.865L286.435 95.0264C296.789 89.2932 308.479 74.7332 305.368 60.8049V60.7953C305.405 60.9839 324.651 147.213 324.651 147.213L362.387 147.128L388.172 25.3665V147.128H449.362V122.968H420.316V92.1601H449.362V67.6325H420.316V37.2864H449.361ZM165.383 105.155L174.281 47.7258L183.521 105.155H165.383ZM259.592 78.6374C257.098 79.5433 254.497 79.9959 251.966 79.9959V36.7867C252.01 36.7867 252.06 36.778 252.123 36.778C254.661 36.7684 273.585 37.3528 273.585 58.1554C273.585 69.0374 267.149 75.8936 259.592 78.6374ZM514.663 122.949V147.109H454.972V12.7783H487.111V122.949H514.663Z" fill="white"/>
</svg>
