<svg width="786" height="269" viewBox="0 0 786 269" fill="none" xmlns="http://www.w3.org/2000/svg">
<path d="M786 0H0V269H786V0Z" fill="#ED1D24"/>
<path d="M665.155 62.6876V21.5141H530.42L508.261 159.066L486.335 21.5148H437.747L443.19 58.2182C437.578 48.8156 417.685 21.5148 373.907 21.5148C373.619 21.4988 325.253 21.5148 325.253 21.5148L325.067 222.008L289.652 21.5148L226.018 21.4834L189.381 229.221L189.4 21.5135H128.498L106.543 138.2L85.1576 21.5148H24.2363V247.36H72.2106V138.503L94.0331 247.358H119.538L141.054 138.503V247.358H233.54L239.152 212.606H276.388L281.981 247.358L372.781 247.405H372.855V247.358H372.911H372.968V174.048L384.099 172.669L407.144 247.405H407.201H454.054H454.109L454.09 247.358H454.174H454.23L423.989 159.763C439.314 150.124 456.618 125.645 452.013 102.228V102.212C452.068 102.529 480.557 247.502 480.557 247.502L536.414 247.358L574.582 42.6473V247.358H665.157V206.74H622.163V154.944H665.157V113.707H622.163V62.6876H665.155ZM244.804 176.792L257.975 80.2389L271.652 176.792H244.804ZM384.255 132.209C380.563 133.732 376.713 134.493 372.966 134.493V61.8475C373.031 61.8475 373.106 61.8328 373.199 61.8328C376.956 61.8167 404.968 62.7992 404.968 97.7736C404.968 116.069 395.441 127.596 384.255 132.209ZM761.818 206.708V247.326H673.461V21.4834H721.034V206.708H761.818Z" fill="white"/>
</svg>
